<?xml version="1.0" standalone="no"?>
<!DOCTYPE svg PUBLIC "-//W3C//DTD SVG 20010904//EN"
 "http://www.w3.org/TR/2001/REC-SVG-20010904/DTD/svg10.dtd">
<svg version="1.0" xmlns="http://www.w3.org/2000/svg"
 width="16.000000pt" height="16.000000pt" viewBox="0 0 16.000000 16.000000"
 preserveAspectRatio="xMidYMid meet">

<g transform="translate(0.000000,16.000000) scale(0.100000,-0.100000)"
fill="#000000" stroke="none">
<path d="M54 116 c-10 -26 4 -48 28 -44 33 4 33 52 0 56 -13 2 -25 -3 -28 -12z"/>
<path d="M20 25 c17 -20 103 -20 120 0 10 13 9 15 -8 15 -12 0 -24 -5 -28 -11
-4 -8 -9 -7 -15 2 -8 12 -10 12 -18 0 -6 -9 -11 -10 -15 -2 -4 6 -16 11 -28
11 -17 0 -18 -2 -8 -15z"/>
</g>
</svg>
